<?xml version="1.0" encoding="UTF-8" standalone="no"?>
<!DOCTYPE svg PUBLIC "-//W3C//DTD SVG 1.1//EN"
 "http://www.w3.org/Graphics/SVG/1.1/DTD/svg11.dtd">
<!-- Generated by graphviz version 10.0.1 (0)
 -->
<!-- Title: Graphical Class Hierarchy Pages: 1 -->
<svg width="381pt" height="64pt"
 viewBox="0.00 0.00 380.50 64.25" xmlns="http://www.w3.org/2000/svg" xmlns:xlink="http://www.w3.org/1999/xlink">
<g id="graph0" class="graph" transform="scale(1 1) rotate(0) translate(4 60.25)">
<title>Graphical Class Hierarchy</title>
<!-- Node0 -->
<g id="Node000000" class="node">
<title>Node0</title>
<g id="a_Node000000"><a xlink:title=" ">
<polygon fill="#e0e0e0" stroke="#999999" points="156.25,-56.25 0,-56.25 0,-37 156.25,-37 156.25,-56.25"/>
<text text-anchor="middle" x="78.12" y="-41.8" font-family="Helvetica,sans-Serif" font-size="11.00">QGeoServiceProviderFactory</text>
</a>
</g>
</g>
<!-- Node1 -->
<g id="Node000001" class="node">
<title>Node1</title>
<g id="a_Node000001"><a xlink:href="classQGeoServiceProviderFactoryQNX.html" target="_top" xlink:title=" ">
<polygon fill="white" stroke="#666666" points="372.5,-37.25 192.25,-37.25 192.25,-18 372.5,-18 372.5,-37.25"/>
<text text-anchor="middle" x="282.38" y="-22.8" font-family="Helvetica,sans-Serif" font-size="11.00">QGeoServiceProviderFactoryQNX</text>
</a>
</g>
</g>
<!-- Node0&#45;&gt;Node1 -->
<g id="edge1_Node000000_Node000001" class="edge">
<title>Node0&#45;&gt;Node1</title>
<g id="a_edge1_Node000000_Node000001"><a xlink:title=" ">
<path fill="none" stroke="#63b8ff" d="M168.15,-38.26C176,-37.52 183.95,-36.78 191.81,-36.04"/>
<polygon fill="#63b8ff" stroke="#63b8ff" points="167.88,-34.77 158.25,-39.19 168.53,-41.74 167.88,-34.77"/>
</a>
</g>
</g>
<!-- Node2 -->
<g id="Node000002" class="node">
<title>Node2</title>
<g id="a_Node000002"><a xlink:title=" ">
<polygon fill="#e0e0e0" stroke="#999999" points="105.62,-19.25 50.62,-19.25 50.62,0 105.62,0 105.62,-19.25"/>
<text text-anchor="middle" x="78.12" y="-4.8" font-family="Helvetica,sans-Serif" font-size="11.00">QObject</text>
</a>
</g>
</g>
<!-- Node2&#45;&gt;Node1 -->
<g id="edge2_Node000002_Node000001" class="edge">
<title>Node2&#45;&gt;Node1</title>
<g id="a_edge2_Node000002_Node000001"><a xlink:title=" ">
<path fill="none" stroke="#63b8ff" d="M117.38,-13.03C138.56,-14.91 165.83,-17.34 192.03,-19.67"/>
<polygon fill="#63b8ff" stroke="#63b8ff" points="117.76,-9.55 107.49,-12.15 117.14,-16.52 117.76,-9.55"/>
</a>
</g>
</g>
</g>
</svg>
